<?xml version="1.0" standalone="no"?>
<!DOCTYPE svg PUBLIC "-//W3C//DTD SVG 20010904//EN"
 "http://www.w3.org/TR/2001/REC-SVG-20010904/DTD/svg10.dtd">
<svg version="1.0" xmlns="http://www.w3.org/2000/svg"
 width="600.000000pt" height="600.000000pt" viewBox="0 0 600.000000 600.000000"
 preserveAspectRatio="xMidYMid meet">
<g transform="translate(0.000000,600.000000) scale(0.100000,-0.100000)"
fill="#000000" stroke="none">
<path d="M2441 3722 c-133 -1 -219 -6 -227 -13 -7 -6 -18 -8 -24 -4 -5 3 -10
1 -10 -5 0 -16 -87 -100 -96 -92 -4 4 -4 2 0 -5 3 -6 -3 -18 -14 -26 -11 -7
-17 -17 -13 -20 3 -4 -1 -7 -11 -7 -9 0 -19 -7 -22 -15 -4 -8 -11 -12 -17 -8
-6 3 -7 1 -3 -5 4 -6 -5 -19 -19 -28 -14 -9 -25 -21 -25 -28 0 -16 -68 -68
-80 -61 -6 3 -7 -1 -4 -9 6 -16 -17 -46 -36 -46 -6 0 -13 -7 -16 -15 -4 -8
-11 -12 -17 -8 -5 3 -7 1 -4 -4 9 -14 -47 -74 -70 -77 -10 -2 -18 -10 -18 -19
0 -9 -3 -16 -7 -14 -3 1 -16 -10 -28 -26 -12 -15 -26 -24 -32 -21 -6 4 -8 2
-5 -3 9 -15 -60 -86 -74 -77 -7 4 -9 3 -5 -4 3 -6 -6 -23 -21 -38 -16 -14 -21
-23 -13 -20 9 5 8 2 -2 -7 -10 -8 -18 -19 -18 -26 0 -14 280 -297 292 -294 4
2 7 0 6 -5 -2 -4 8 -20 22 -35 14 -16 25 -34 25 -40 1 -7 7 -11 14 -9 16 3 42
-29 34 -42 -4 -5 -2 -6 4 -3 5 3 21 -5 35 -18 14 -13 29 -21 32 -18 3 4 6 1 6
-6 0 -6 50 -62 112 -124 61 -62 108 -105 103 -97 -5 9 1 7 14 -5 21 -18 36
-19 264 -17 298 2 282 -7 274 150 -3 56 -10 109 -17 117 -9 11 -53 14 -209 17
l-197 3 -36 40 c-58 65 -107 113 -110 110 -2 -1 -12 7 -23 18 -12 11 -14 17
-5 13 8 -4 6 0 -4 8 -11 9 -24 16 -29 16 -4 0 -5 5 -1 12 4 7 3 8 -4 4 -6 -4
-16 4 -23 16 -7 13 -26 36 -43 53 -16 16 -26 23 -22 15 4 -8 0 -6 -8 4 -9 11
-16 24 -16 29 0 4 -3 6 -7 4 -5 -2 -19 8 -33 21 -14 14 -19 22 -12 18 6 -4 12
-5 12 -2 0 3 -13 12 -30 21 -16 9 -30 20 -30 25 0 5 18 27 40 49 22 22 40 44
40 49 0 5 11 15 25 22 13 7 23 16 22 19 -5 9 41 50 47 43 3 -3 6 -1 6 4 0 6 7
19 16 30 8 10 12 12 8 4 -4 -8 39 33 97 91 57 59 105 110 106 115 4 18 46 23
222 23 148 0 187 2 198 14 11 10 17 47 20 118 5 92 3 107 -13 127 -23 27 -28
28 -293 24z m279 -142 l0 -110 -198 0 -198 0 -234 -236 -233 -235 234 -235
234 -234 197 0 198 0 0 -110 0 -110 -248 0 -248 0 -346 344 -345 343 345 347
346 346 248 0 248 0 0 -110z"/>
<path d="M2135 3561 c-3 -5 -2 -12 3 -15 5 -3 9 1 9 9 0 17 -3 19 -12 6z"/>
<path d="M2185 3431 c-3 -5 -2 -12 3 -15 5 -3 9 1 9 9 0 17 -3 19 -12 6z"/>
<path d="M1989 3183 c-13 -16 -12 -17 4 -4 16 13 21 21 13 21 -2 0 -10 -8 -17
-17z"/>
<path d="M1843 3045 c0 -8 4 -12 9 -9 5 3 6 10 3 15 -9 13 -12 11 -12 -6z"/>
<path d="M1943 2825 c0 -8 4 -12 9 -9 5 3 6 10 3 15 -9 13 -12 11 -12 -6z"/>
<path d="M2265 2501 c-6 -11 13 -26 22 -17 4 3 1 6 -6 6 -7 0 -9 5 -6 10 3 6
4 10 1 10 -3 0 -7 -4 -11 -9z"/>
<path d="M2965 3722 c-127 -4 -115 70 -115 -722 0 -658 1 -677 19 -695 19 -16
21 -16 51 5 16 12 28 26 25 31 -4 5 0 9 8 9 7 0 20 11 27 25 7 14 16 25 20 25
4 0 27 20 52 45 25 25 44 45 42 45 -1 0 8 11 21 25 l25 24 0 580 0 580 -21 12
c-26 13 -47 15 -154 11z m147 -604 l-3 -573 -115 -116 -114 -116 0 689 0 688
118 0 117 0 -3 -572z"/>
<path d="M3883 3720 l-362 -5 -29 -28 c-15 -15 -32 -24 -37 -20 -4 5 -5 2 -1
-4 4 -8 2 -13 -5 -13 -7 0 -9 -3 -6 -7 4 -3 -8 -17 -25 -30 -18 -12 -28 -23
-22 -23 5 -1 -2 -7 -16 -15 -14 -8 -21 -14 -16 -15 6 0 -5 -11 -24 -25 -19
-14 -30 -25 -24 -25 5 -1 -2 -7 -16 -15 -14 -8 -21 -14 -17 -15 4 0 -2 -10
-15 -22 -23 -23 -23 -24 -21 -291 1 -231 3 -271 18 -293 l16 -25 385 6 c252 4
384 3 384 -3 0 -17 -180 -197 -193 -194 -7 2 -9 0 -5 -3 4 -4 -4 -16 -17 -27
-13 -10 -27 -27 -30 -38 -4 -11 -11 -17 -17 -14 -6 4 -5 10 3 16 11 8 11 9 -1
5 -8 -2 -15 -9 -15 -15 0 -5 -2 -13 -6 -16 -3 -3 -109 -6 -236 -6 l-231 -1
-36 -37 c-42 -43 -83 -84 -128 -129 -46 -45 -58 -60 -58 -73 0 -6 -4 -8 -10
-5 -5 3 -10 2 -10 -4 0 -13 38 -34 49 -26 5 3 11 2 13 -2 1 -5 180 -7 396 -5
216 2 391 7 389 10 -2 4 7 17 20 29 13 12 23 20 23 18 0 -3 38 37 117 122 6 7
16 13 21 13 5 0 14 10 21 23 8 12 38 43 67 70 30 26 52 47 50 47 -3 0 10 15
27 32 18 18 34 32 37 31 3 -1 15 12 25 28 14 21 27 29 44 27 19 -2 25 2 28 22
2 14 25 45 51 69 26 24 40 40 32 36 -9 -5 -8 0 4 14 17 18 20 37 20 133 0 98
-3 112 -20 125 -16 11 -110 13 -577 11 -407 -2 -553 0 -542 8 8 6 12 13 9 17
-3 3 5 8 17 12 24 8 66 54 62 67 -2 4 8 10 22 14 14 3 25 10 25 14 0 5 14 24
30 42 17 18 30 36 30 40 0 3 9 10 20 13 11 4 18 11 15 16 -4 5 1 9 10 9 9 0
13 5 10 10 -3 6 -1 10 5 10 6 0 19 7 28 16 14 14 40 16 201 13 282 -6 413 -1
435 16 16 12 18 27 17 120 -2 101 -11 141 -36 147 -5 2 -173 1 -372 -2z m377
-142 l0 -113 -312 3 -313 2 -180 -180 -180 -180 596 0 596 0 0 -109 0 -109
-291 -291 -291 -291 -398 -2 c-218 -2 -397 -3 -397 -2 0 0 51 51 113 112 l112
112 235 1 235 2 175 179 175 178 -430 0 -430 -1 -2 268 -2 268 126 133 126
132 369 0 368 0 0 -112z m120 -817 c0 -5 -7 -12 -16 -15 -14 -5 -15 -4 -4 9
14 17 20 19 20 6z"/>
<path d="M4199 2673 c-13 -16 -12 -17 4 -4 16 13 21 21 13 21 -2 0 -10 -8 -17
-17z"/>
<path d="M3945 2471 c-3 -5 -2 -12 3 -15 5 -3 9 1 9 9 0 17 -3 19 -12 6z"/>
<path d="M2668 3335 c-3 -4 -67 -7 -142 -7 -75 0 -139 -5 -142 -10 -3 -4 -10
-6 -15 -3 -5 4 -13 -5 -19 -19 -5 -14 -12 -26 -15 -26 -4 0 -3 6 1 13 4 6 -4
1 -17 -13 -14 -14 -38 -38 -55 -54 -16 -16 -22 -26 -14 -22 8 4 7 1 -3 -7 -10
-9 -25 -24 -34 -34 -8 -10 -11 -12 -7 -4 5 9 3 12 -4 7 -7 -4 -12 -16 -12 -27
0 -11 -4 -17 -10 -14 -5 3 -10 3 -10 -2 0 -4 -14 -16 -31 -26 -22 -12 -29 -22
-24 -34 3 -10 3 -14 -1 -11 -6 7 -44 -33 -44 -46 0 -3 11 -17 25 -32 13 -14
22 -31 18 -37 -3 -5 -1 -7 5 -3 6 3 20 -6 31 -20 12 -15 21 -24 21 -21 0 3 17
-11 38 -32 21 -20 36 -40 33 -45 -2 -5 1 -6 8 -2 6 4 14 0 18 -11 4 -10 16
-26 27 -36 17 -15 18 -20 6 -27 -9 -6 -10 -10 -3 -10 6 0 15 5 18 10 4 6 22
-4 43 -25 l37 -36 148 3 c92 2 148 -1 151 -7 2 -5 13 1 25 14 20 23 21 32 21
328 0 295 -1 305 -20 310 -11 3 -22 4 -26 3 -4 -1 -10 3 -14 9 -3 6 -9 9 -12
6z m52 -337 l0 -303 -167 2 -166 2 -149 148 -148 148 148 151 147 151 168 2
167 1 0 -302z"/>
<path d="M2379 3213 c-13 -16 -12 -17 4 -4 16 13 21 21 13 21 -2 0 -10 -8 -17
-17z"/>
<path d="M2215 2951 c-3 -5 -2 -12 3 -15 5 -3 9 1 9 9 0 17 -3 19 -12 6z"/>
<path d="M2303 2865 c0 -8 4 -12 9 -9 5 3 6 10 3 15 -9 13 -12 11 -12 -6z"/>
<path d="M2385 2791 c-3 -5 -2 -12 3 -15 5 -3 9 1 9 9 0 17 -3 19 -12 6z"/>
</g>
</svg>
